<mxfile host="Electron" modified="2024-01-20T13:07:52.983Z" agent="Mozilla/5.0 (Windows NT 10.0; Win64; x64) AppleWebKit/537.36 (KHTML, like Gecko) draw.io/22.1.21 Chrome/120.0.6099.109 Electron/28.1.0 Safari/537.36" etag="_uYbBeiBgMJzWbJgubBT" version="22.1.21" type="device">
  <diagram name="Page-1" id="Umb1S6DrYRTSFSJQdrjl">
    <mxGraphModel dx="977" dy="671" grid="1" gridSize="10" guides="1" tooltips="1" connect="1" arrows="1" fold="1" page="1" pageScale="1" pageWidth="850" pageHeight="1100" math="0" shadow="0">
      <root>
        <mxCell id="0" />
        <mxCell id="1" parent="0" />
        <mxCell id="m0NGbrf-xR5CA_mGpvCX-25" value="基类部分&amp;nbsp; &amp;nbsp; &amp;nbsp; &amp;nbsp; &amp;nbsp; &amp;nbsp; &amp;nbsp; &amp;nbsp; &amp;nbsp; &amp;nbsp; &amp;nbsp; &amp;nbsp; &amp;nbsp; &amp;nbsp; &amp;nbsp; &amp;nbsp; &amp;nbsp; &amp;nbsp; &amp;nbsp; &amp;nbsp; &amp;nbsp; &amp;nbsp; &amp;nbsp; &amp;nbsp; &amp;nbsp; &amp;nbsp; &amp;nbsp; &amp;nbsp; &amp;nbsp; &amp;nbsp; &amp;nbsp;" style="rounded=0;whiteSpace=wrap;html=1;gradientColor=none;fillColor=#EEEEEE;strokeColor=#36393d;align=center;" parent="1" vertex="1">
          <mxGeometry x="200" y="80" width="370" height="160" as="geometry" />
        </mxCell>
        <mxCell id="m0NGbrf-xR5CA_mGpvCX-26" style="edgeStyle=orthogonalEdgeStyle;rounded=0;orthogonalLoop=1;jettySize=auto;html=1;shape=flexArrow;startArrow=block;fillColor=#b3b3b3;strokeColor=#36393d;" parent="1" source="m0NGbrf-xR5CA_mGpvCX-27" target="m0NGbrf-xR5CA_mGpvCX-36" edge="1">
          <mxGeometry relative="1" as="geometry">
            <Array as="points">
              <mxPoint x="230" y="210" />
              <mxPoint x="230" y="210" />
            </Array>
          </mxGeometry>
        </mxCell>
        <mxCell id="m0NGbrf-xR5CA_mGpvCX-27" value="protected 成员" style="rounded=0;whiteSpace=wrap;html=1;fillColor=#B0F9E0;strokeColor=#0E8088;fontFamily=consolas;" parent="1" vertex="1">
          <mxGeometry x="260" y="190" width="120" height="40" as="geometry" />
        </mxCell>
        <mxCell id="m0NGbrf-xR5CA_mGpvCX-28" value="" style="edgeStyle=orthogonalEdgeStyle;rounded=0;orthogonalLoop=1;jettySize=auto;html=1;startArrow=block;shape=flexArrow;fillColor=#b3b3b3;strokeColor=#36393D;" parent="1" source="m0NGbrf-xR5CA_mGpvCX-32" target="m0NGbrf-xR5CA_mGpvCX-33" edge="1">
          <mxGeometry relative="1" as="geometry">
            <Array as="points">
              <mxPoint x="520" y="110" />
              <mxPoint x="520" y="110" />
            </Array>
          </mxGeometry>
        </mxCell>
        <mxCell id="m0NGbrf-xR5CA_mGpvCX-29" value="" style="edgeStyle=orthogonalEdgeStyle;rounded=0;orthogonalLoop=1;jettySize=auto;html=1;startArrow=classic;startFill=1;shape=flexArrow;fillColor=#b3b3b3;strokeColor=#36393d;" parent="1" source="m0NGbrf-xR5CA_mGpvCX-32" target="m0NGbrf-xR5CA_mGpvCX-35" edge="1">
          <mxGeometry relative="1" as="geometry">
            <Array as="points">
              <mxPoint x="460" y="170" />
              <mxPoint x="460" y="170" />
            </Array>
          </mxGeometry>
        </mxCell>
        <mxCell id="m0NGbrf-xR5CA_mGpvCX-30" style="edgeStyle=orthogonalEdgeStyle;rounded=0;orthogonalLoop=1;jettySize=auto;html=1;shape=flexArrow;startArrow=block;fillColor=#b3b3b3;strokeColor=#36393d;" parent="1" source="m0NGbrf-xR5CA_mGpvCX-32" target="m0NGbrf-xR5CA_mGpvCX-27" edge="1">
          <mxGeometry relative="1" as="geometry">
            <Array as="points">
              <mxPoint x="360" y="160" />
              <mxPoint x="360" y="160" />
            </Array>
          </mxGeometry>
        </mxCell>
        <mxCell id="m0NGbrf-xR5CA_mGpvCX-31" style="edgeStyle=orthogonalEdgeStyle;rounded=0;orthogonalLoop=1;jettySize=auto;html=1;shape=flexArrow;startArrow=block;fillColor=#b3b3b3;strokeColor=#36393d;" parent="1" source="m0NGbrf-xR5CA_mGpvCX-32" target="m0NGbrf-xR5CA_mGpvCX-36" edge="1">
          <mxGeometry relative="1" as="geometry">
            <Array as="points">
              <mxPoint x="250" y="110" />
              <mxPoint x="250" y="110" />
            </Array>
          </mxGeometry>
        </mxCell>
        <mxCell id="m0NGbrf-xR5CA_mGpvCX-32" value="public&amp;nbsp;成员" style="rounded=0;whiteSpace=wrap;html=1;fillColor=#fad7ac;strokeColor=#b46504;fontFamily=consolas;" parent="1" vertex="1">
          <mxGeometry x="350" y="90" width="120" height="40" as="geometry" />
        </mxCell>
        <mxCell id="m0NGbrf-xR5CA_mGpvCX-33" value="外界" style="rounded=0;whiteSpace=wrap;html=1;fillColor=#b1ddf0;strokeColor=#10739e;fontFamily=consolas;" parent="1" vertex="1">
          <mxGeometry x="600" y="80" width="90" height="160" as="geometry" />
        </mxCell>
        <mxCell id="m0NGbrf-xR5CA_mGpvCX-34" style="edgeStyle=orthogonalEdgeStyle;rounded=0;orthogonalLoop=1;jettySize=auto;html=1;startArrow=classic;startFill=1;shape=flexArrow;fillColor=#b3b3b3;strokeColor=#36393d;" parent="1" source="m0NGbrf-xR5CA_mGpvCX-35" target="m0NGbrf-xR5CA_mGpvCX-27" edge="1">
          <mxGeometry relative="1" as="geometry" />
        </mxCell>
        <mxCell id="m0NGbrf-xR5CA_mGpvCX-35" value="private&amp;nbsp;成员" style="rounded=0;whiteSpace=wrap;html=1;fillColor=#fad9d5;strokeColor=#ae4132;fontFamily=consolas;" parent="1" vertex="1">
          <mxGeometry x="440" y="190" width="120" height="40" as="geometry" />
        </mxCell>
        <mxCell id="m0NGbrf-xR5CA_mGpvCX-36" value="派生类部分" style="rounded=0;whiteSpace=wrap;html=1;fillColor=#eeeeee;strokeColor=#36393d;fontFamily=consolas;" parent="1" vertex="1">
          <mxGeometry x="110" y="80" width="90" height="160" as="geometry" />
        </mxCell>
      </root>
    </mxGraphModel>
  </diagram>
</mxfile>
